<svg width="32" height="32" viewBox="0 0 32 32" fill="none" xmlns="http://www.w3.org/2000/svg">
<rect x="0.5" y="0.5" width="31" height="31" stroke="white"/>
<g clip-path="url(#clip0_20_155)">
<path d="M15.877 11.9571C13.6295 11.9571 11.8167 13.7606 11.8167 15.9965C11.8167 18.2325 13.6295 20.036 15.877 20.036C18.1246 20.036 19.9374 18.2325 19.9374 15.9965C19.9374 13.7606 18.1246 11.9571 15.877 11.9571ZM15.877 18.6227C14.4246 18.6227 13.2373 17.445 13.2373 15.9965C13.2373 14.5481 14.4211 13.3704 15.877 13.3704C17.333 13.3704 18.5168 14.5481 18.5168 15.9965C18.5168 17.445 17.3295 18.6227 15.877 18.6227ZM21.0506 11.7918C21.0506 12.3157 20.6265 12.734 20.1035 12.734C19.577 12.734 19.1564 12.3122 19.1564 11.7918C19.1564 11.2715 19.5805 10.8497 20.1035 10.8497C20.6265 10.8497 21.0506 11.2715 21.0506 11.7918ZM23.7398 12.7481C23.6797 11.486 23.39 10.368 22.4606 9.44692C21.5347 8.52583 20.411 8.23755 19.1423 8.17427C17.8348 8.10044 13.9158 8.10044 12.6083 8.17427C11.3431 8.23403 10.2194 8.52231 9.28998 9.44341C8.36059 10.3645 8.07434 11.4825 8.01074 12.7446C7.93653 14.0454 7.93653 17.9442 8.01074 19.245C8.07081 20.5071 8.36059 21.625 9.28998 22.5461C10.2194 23.4672 11.3396 23.7555 12.6083 23.8188C13.9158 23.8926 17.8348 23.8926 19.1423 23.8188C20.411 23.759 21.5347 23.4707 22.4606 22.5461C23.3864 21.625 23.6762 20.5071 23.7398 19.245C23.814 17.9442 23.814 14.0489 23.7398 12.7481ZM22.0507 20.6407C21.775 21.3297 21.2414 21.8606 20.5452 22.1383C19.5028 22.5497 17.0291 22.4547 15.877 22.4547C14.725 22.4547 12.2478 22.5461 11.2089 22.1383C10.5162 21.8641 9.98261 21.3332 9.70344 20.6407C9.28998 19.6036 9.3854 17.1426 9.3854 15.9965C9.3854 14.8504 9.29352 12.386 9.70344 11.3524C9.97908 10.6633 10.5127 10.1325 11.2089 9.85474C12.2513 9.44341 14.725 9.53833 15.877 9.53833C17.0291 9.53833 19.5063 9.44692 20.5452 9.85474C21.2379 10.129 21.7715 10.6598 22.0507 11.3524C22.4641 12.3895 22.3687 14.8504 22.3687 15.9965C22.3687 17.1426 22.4641 19.6071 22.0507 20.6407Z" fill="white"/>
</g>
<defs>
<clipPath id="clip0_20_155">
<rect width="16" height="18" fill="white" transform="translate(8 7)"/>
</clipPath>
</defs>
</svg>
