<svg width="32" height="32" viewBox="0 0 32 32" fill="none" xmlns="http://www.w3.org/2000/svg">
<rect x="0.5" y="0.5" width="31" height="31" stroke="white"/>
<g clip-path="url(#clip0_20_160)">
<path d="M11.5525 23V12.8795H8.15826V23H11.5525ZM9.8558 11.4969C11.0394 11.4969 11.7762 10.7198 11.7762 9.74862C11.7541 8.75556 11.0395 8 9.87826 8C8.71724 8 7.95801 8.75558 7.95801 9.74862C7.95801 10.7198 8.69457 11.4969 9.83364 11.4969H9.85569H9.8558ZM13.4311 23H16.8253V17.3482C16.8253 17.0458 16.8474 16.7436 16.937 16.5274C17.1824 15.923 17.7409 15.2971 18.6785 15.2971C19.9067 15.2971 20.3981 16.2252 20.3981 17.5857V22.9999H23.792V17.1969C23.792 14.0883 22.1175 12.6419 19.8843 12.6419C18.0533 12.6419 17.2494 13.6563 16.8027 14.3471H16.8254V12.8793H13.4312C13.4758 13.829 13.4312 22.9998 13.4312 22.9998L13.4311 23Z" fill="white"/>
</g>
<defs>
<clipPath id="clip0_20_160">
<rect width="16" height="15" fill="white" transform="translate(8 8)"/>
</clipPath>
</defs>
</svg>
