<svg width="48" height="48" viewBox="0 0 48 48" fill="none" xmlns="http://www.w3.org/2000/svg">
<g clip-path="url(#clip0_16_548)">
<circle cx="24" cy="24" r="24" fill="white"/>
<path d="M24.4616 17.5119L25.2743 19.4284C25.3294 19.5951 25.481 19.6923 25.6325 19.7062L27.6989 19.9006C28.1397 19.9423 28.305 20.4839 27.9882 20.7755L26.4315 22.1504C26.3075 22.2615 26.2524 22.4281 26.2937 22.5809L26.7483 24.6224C26.8448 25.0529 26.3902 25.3862 26.0044 25.164L24.2274 24.0946C24.0896 24.0113 23.9105 24.0113 23.7728 24.0946L21.9957 25.164C21.6237 25.3862 21.1554 25.0529 21.2518 24.6224L21.7064 22.5809C21.7477 22.4281 21.6926 22.2615 21.5686 22.1504L20.012 20.7755C19.6813 20.4839 19.8604 19.9423 20.3013 19.9006L22.3676 19.7062C22.5329 19.6923 22.6707 19.5951 22.7396 19.4423L23.5523 17.5258C23.7177 17.1092 24.2825 17.1092 24.4616 17.5119Z" stroke="#F0C932" stroke-width="1.33333" stroke-miterlimit="10" stroke-linecap="round" stroke-linejoin="round"/>
<path d="M33.3708 21.5735C33.4064 16.358 29.2413 12.1009 24.0677 12.065C18.8942 12.0291 14.6713 16.228 14.6357 21.4435C14.6001 26.659 18.7652 30.9161 23.9388 30.952C29.1124 30.9879 33.3352 26.789 33.3708 21.5735Z" stroke="#F0C932" stroke-width="1.33333" stroke-miterlimit="10" stroke-linecap="round" stroke-linejoin="round"/>
<path d="M22.7257 30.8578L20.3976 36.76L17.4496 33.3576L13 33.7742L15.948 26.3305" stroke="#F0C932" stroke-width="1.33333" stroke-miterlimit="10" stroke-linecap="round" stroke-linejoin="round"/>
<path d="M25.2605 30.8578L27.6024 36.76L30.5367 33.3576L35 33.7742L32.0382 26.3305" stroke="#F0C932" stroke-width="1.33333" stroke-miterlimit="10" stroke-linecap="round" stroke-linejoin="round"/>
</g>
<defs>
<clipPath id="clip0_16_548">
<rect width="48" height="48" fill="white"/>
</clipPath>
</defs>
</svg>
