<svg width="32" height="32" viewBox="0 0 32 32" fill="none" xmlns="http://www.w3.org/2000/svg">
<rect x="0.5" y="0.5" width="31" height="31" stroke="white"/>
<g clip-path="url(#clip0_20_165)">
<path d="M24.7793 10.7049C24.1124 10.9894 23.405 11.1761 22.6806 11.2589C23.4351 10.8235 24.0145 10.134 24.2873 9.31247C23.57 9.72228 22.7853 10.011 21.9669 10.1662C21.3004 9.48248 20.3508 9.05518 19.2997 9.05518C17.2817 9.05518 15.6456 10.6304 15.6456 12.5733C15.6456 12.849 15.6779 13.1175 15.7402 13.3751C12.7034 13.2283 10.0109 11.8277 8.20866 9.69918C7.89419 10.2188 7.714 10.8232 7.714 11.4679C7.714 12.6885 8.35915 13.7653 9.33956 14.3962C8.75929 14.3787 8.19179 14.2278 7.68443 13.9561C7.68422 13.9708 7.68422 13.9856 7.68422 14.0004C7.68422 15.705 8.94376 17.1269 10.6153 17.4501C10.0772 17.591 9.51281 17.6117 8.96519 17.5104C9.43014 18.9082 10.7796 19.9253 12.3786 19.9537C11.128 20.8973 9.55238 21.4598 7.84048 21.4598C7.5455 21.4598 7.25468 21.4431 6.96881 21.4106C8.58588 22.4088 10.5066 22.9913 12.5701 22.9913C19.2913 22.9913 22.9666 17.6303 22.9666 12.9813C22.9666 12.8287 22.9631 12.677 22.956 12.5261C23.6714 12.0282 24.2888 11.4115 24.7793 10.7049Z" fill="white"/>
</g>
<defs>
<clipPath id="clip0_20_165">
<rect width="18" height="14" fill="white" transform="translate(7.00006 9)"/>
</clipPath>
</defs>
</svg>
