<svg width="152" height="24" viewBox="0 0 152 24" fill="none" xmlns="http://www.w3.org/2000/svg">
<path d="M11.5245 1.46353C11.6741 1.00287 12.3259 1.00287 12.4755 1.46353L14.5819 7.9463C14.6488 8.15232 14.8408 8.2918 15.0574 8.2918H21.8738C22.3582 8.2918 22.5596 8.9116 22.1677 9.1963L16.6531 13.2029C16.4779 13.3302 16.4046 13.5559 16.4715 13.7619L18.5779 20.2447C18.7276 20.7053 18.2003 21.0884 17.8085 20.8037L12.2939 16.7971C12.1186 16.6698 11.8814 16.6698 11.7061 16.7971L6.19153 20.8037C5.79967 21.0884 5.27243 20.7053 5.42211 20.2447L7.52849 13.7619C7.59543 13.5559 7.5221 13.3302 7.34685 13.2029L1.83227 9.1963C1.44041 8.9116 1.6418 8.2918 2.12616 8.2918H8.94256C9.15917 8.2918 9.35115 8.15232 9.41809 7.9463L11.5245 1.46353Z" fill="#F1CC4A"/>
<path d="M75.5245 1.46353C75.6741 1.00287 76.3259 1.00287 76.4755 1.46353L78.5819 7.9463C78.6488 8.15232 78.8408 8.2918 79.0574 8.2918H85.8738C86.3582 8.2918 86.5596 8.9116 86.1677 9.1963L80.6531 13.2029C80.4779 13.3302 80.4046 13.5559 80.4715 13.7619L82.5779 20.2447C82.7276 20.7053 82.2003 21.0884 81.8085 20.8037L76.2939 16.7971C76.1186 16.6698 75.8814 16.6698 75.7061 16.7971L70.1915 20.8037C69.7997 21.0884 69.2724 20.7053 69.4221 20.2447L71.5285 13.7619C71.5954 13.5559 71.5221 13.3302 71.3469 13.2029L65.8323 9.1963C65.4404 8.9116 65.6418 8.2918 66.1262 8.2918H72.9426C73.1592 8.2918 73.3512 8.15232 73.4181 7.9463L75.5245 1.46353Z" fill="#F1CC4A"/>
<path d="M43.5245 1.46353C43.6741 1.00287 44.3259 1.00287 44.4755 1.46353L46.5819 7.9463C46.6488 8.15232 46.8408 8.2918 47.0574 8.2918H53.8738C54.3582 8.2918 54.5596 8.9116 54.1677 9.1963L48.6531 13.2029C48.4779 13.3302 48.4046 13.5559 48.4715 13.7619L50.5779 20.2447C50.7276 20.7053 50.2003 21.0884 49.8085 20.8037L44.2939 16.7971C44.1186 16.6698 43.8814 16.6698 43.7061 16.7971L38.1915 20.8037C37.7997 21.0884 37.2724 20.7053 37.4221 20.2447L39.5285 13.7619C39.5954 13.5559 39.5221 13.3302 39.3469 13.2029L33.8323 9.1963C33.4404 8.9116 33.6418 8.2918 34.1262 8.2918H40.9426C41.1592 8.2918 41.3512 8.15232 41.4181 7.9463L43.5245 1.46353Z" fill="#F1CC4A"/>
<path d="M107.524 1.46353C107.674 1.00287 108.326 1.00287 108.476 1.46353L110.582 7.9463C110.649 8.15232 110.841 8.2918 111.057 8.2918H117.874C118.358 8.2918 118.56 8.9116 118.168 9.1963L112.653 13.2029C112.478 13.3302 112.405 13.5559 112.472 13.7619L114.578 20.2447C114.728 20.7053 114.2 21.0884 113.808 20.8037L108.294 16.7971C108.119 16.6698 107.881 16.6698 107.706 16.7971L102.192 20.8037C101.8 21.0884 101.272 20.7053 101.422 20.2447L103.528 13.7619C103.595 13.5559 103.522 13.3302 103.347 13.2029L97.8323 9.1963C97.4404 8.9116 97.6418 8.2918 98.1262 8.2918H104.943C105.159 8.2918 105.351 8.15232 105.418 7.9463L107.524 1.46353Z" fill="#F1CC4A"/>
<path d="M139.524 1.46353C139.674 1.00287 140.326 1.00287 140.476 1.46353L142.582 7.9463C142.649 8.15232 142.841 8.2918 143.057 8.2918H149.874C150.358 8.2918 150.56 8.9116 150.168 9.1963L144.653 13.2029C144.478 13.3302 144.405 13.5559 144.472 13.7619L146.578 20.2447C146.728 20.7053 146.2 21.0884 145.808 20.8037L140.294 16.7971C140.119 16.6698 139.881 16.6698 139.706 16.7971L134.192 20.8037C133.8 21.0884 133.272 20.7053 133.422 20.2447L135.528 13.7619C135.595 13.5559 135.522 13.3302 135.347 13.2029L129.832 9.1963C129.44 8.9116 129.642 8.2918 130.126 8.2918H136.943C137.159 8.2918 137.351 8.15232 137.418 7.9463L139.524 1.46353Z" fill="#F1CC4A"/>
</svg>
