<svg width="24" height="24" viewBox="0 0 24 24" fill="none" xmlns="http://www.w3.org/2000/svg">
<g clip-path="url(#clip0_148_296)">
<path d="M12.0001 2C14.7171 2 15.0561 2.01 16.1221 2.06C17.1871 2.11 17.9121 2.277 18.5501 2.525C19.2101 2.779 19.7661 3.123 20.3221 3.678C20.8306 4.1779 21.2241 4.78259 21.4751 5.45C21.7221 6.087 21.8901 6.813 21.9401 7.878C21.9871 8.944 22.0001 9.283 22.0001 12C22.0001 14.717 21.9901 15.056 21.9401 16.122C21.8901 17.187 21.7221 17.912 21.4751 18.55C21.2248 19.2178 20.8313 19.8226 20.3221 20.322C19.8221 20.8303 19.2174 21.2238 18.5501 21.475C17.9131 21.722 17.1871 21.89 16.1221 21.94C15.0561 21.987 14.7171 22 12.0001 22C9.28311 22 8.94411 21.99 7.87811 21.94C6.8131 21.89 6.0881 21.722 5.4501 21.475C4.78242 21.2245 4.17762 20.8309 3.6781 20.322C3.1695 19.8222 2.77602 19.2175 2.52509 18.55C2.27709 17.913 2.11009 17.187 2.06009 16.122C2.01309 15.056 2.00009 14.717 2.00009 12C2.00009 9.283 2.01009 8.944 2.06009 7.878C2.11009 6.812 2.27709 6.088 2.52509 5.45C2.77533 4.78218 3.1689 4.17732 3.6781 3.678C4.17777 3.16923 4.78253 2.77573 5.4501 2.525C6.0881 2.277 6.8121 2.11 7.87811 2.06C8.94411 2.013 9.28311 2 12.0001 2ZM12.0001 7C10.674 7 9.40226 7.52679 8.46457 8.46447C7.52689 9.40215 7.0001 10.6739 7.0001 12C7.0001 13.3261 7.52689 14.5979 8.46457 15.5355C9.40226 16.4732 10.674 17 12.0001 17C13.3262 17 14.598 16.4732 15.5357 15.5355C16.4733 14.5979 17.0001 13.3261 17.0001 12C17.0001 10.6739 16.4733 9.40215 15.5357 8.46447C14.598 7.52679 13.3262 7 12.0001 7ZM18.5001 6.75C18.5001 6.41848 18.3684 6.10054 18.134 5.86612C17.8996 5.6317 17.5817 5.5 17.2501 5.5C16.9186 5.5 16.6007 5.6317 16.3662 5.86612C16.1318 6.10054 16.0001 6.41848 16.0001 6.75C16.0001 7.08152 16.1318 7.39946 16.3662 7.63388C16.6007 7.86831 16.9186 8 17.2501 8C17.5817 8 17.8996 7.86831 18.134 7.63388C18.3684 7.39946 18.5001 7.08152 18.5001 6.75ZM12.0001 9C12.7958 9 13.5588 9.31607 14.1214 9.87868C14.6841 10.4413 15.0001 11.2044 15.0001 12C15.0001 12.7957 14.6841 13.5587 14.1214 14.1213C13.5588 14.6839 12.7958 15 12.0001 15C11.2045 15 10.4414 14.6839 9.87879 14.1213C9.31618 13.5587 9.00011 12.7957 9.00011 12C9.00011 11.2044 9.31618 10.4413 9.87879 9.87868C10.4414 9.31607 11.2045 9 12.0001 9Z" fill="white"/>
</g>
<defs>
<clipPath id="clip0_148_296">
<rect width="24.0001" height="24" fill="white"/>
</clipPath>
</defs>
</svg>
