<svg width="92" height="78" viewBox="0 0 92 78" fill="none" xmlns="http://www.w3.org/2000/svg">
<g clip-path="url(#clip0_119_351)">
<path d="M7.33334 67.357C7.14102 66.9923 6.88641 66.6581 6.56937 66.3556C6.25378 66.0546 5.89825 65.7707 5.50293 65.5054C5.10905 65.2416 4.7045 64.9855 4.29058 64.7376C3.76665 64.4272 3.27459 64.1075 2.81439 63.78C2.3542 63.4511 1.97877 63.0928 1.68826 62.7043C1.39646 62.3157 1.252 61.8714 1.252 61.3713C1.252 60.9907 1.34744 60.6364 1.54106 60.3089C1.73339 59.9813 2.01193 59.716 2.37409 59.5143C2.73611 59.3128 3.17122 59.212 3.67784 59.212C4.28798 59.212 4.8504 59.411 5.36495 59.8074C5.88095 60.2053 6.29602 60.8035 6.61306 61.6032L7.38106 60.6283C7.19667 60.3922 6.94062 60.1455 6.61306 59.8896C6.28535 59.6337 5.87821 59.4147 5.39148 59.2343C4.90461 59.0527 4.33441 58.9624 3.67784 58.9624C2.68176 58.9624 1.88607 59.241 1.29049 59.7994C0.695056 60.3577 0.396619 61.0859 0.396619 61.9839C0.396619 62.456 0.490764 62.8764 0.677756 63.2478C0.864748 63.6192 1.11546 63.9574 1.42846 64.2625C1.74276 64.5676 2.09166 64.8515 2.47761 65.1127C2.86356 65.3752 3.25744 65.626 3.66069 65.8687C4.16731 66.1738 4.64481 66.4868 5.09319 66.809C5.54272 67.1314 5.90892 67.4868 6.19409 67.8755C6.47926 68.2642 6.62113 68.7177 6.62113 69.235C6.62113 69.8863 6.38238 70.4168 5.90488 70.828C5.42738 71.2392 4.81739 71.4448 4.07461 71.4448C3.33846 71.4448 2.6819 71.2047 2.10622 70.7245C1.53068 70.2444 1.08504 69.5985 0.768008 68.7866L0 69.7617C0.344861 70.2114 0.831588 70.6198 1.45903 70.9871C2.2589 71.454 3.13157 71.6874 4.07461 71.6874C5.1967 71.6874 6.06938 71.4022 6.69019 70.8319C7.31215 70.2628 7.62255 69.5108 7.62255 68.5785C7.62255 68.1302 7.52697 67.7231 7.33334 67.357Z" fill="white"/>
<path d="M23.2069 60.1099C22.419 59.4546 21.3341 59.1258 19.952 59.1258H15.8776V71.5057H16.94V66.6367H19.952C21.3341 66.6367 22.419 66.3105 23.2069 65.6565C23.9961 65.004 24.3899 64.0808 24.3899 62.8898C24.3899 61.6936 23.9961 60.7665 23.2069 60.1099ZM23.0265 62.9589C23.0265 63.3846 22.9709 63.8037 22.862 64.2149C22.7519 64.6261 22.5768 64.9962 22.3355 65.3251C22.094 65.6526 21.7771 65.9126 21.3858 66.1063C20.9945 66.2987 20.517 66.3954 19.952 66.3954H16.94V59.3763H19.952C21.017 59.3763 21.8116 59.7332 22.3355 60.4467C22.7957 61.0793 23.0265 61.8938 23.0265 62.8898V62.9589Z" fill="white"/>
<path d="M39.8617 60.1364V65.1952H33.7672V59.1258H32.7048V71.5057H33.7672V65.4457H39.8617V71.5057H40.9241V60.2903C40.5673 60.2453 40.2145 60.1935 39.8617 60.1364Z" fill="white"/>
<path d="M50.7417 71.2552V65.4459H56.1544V65.1952H50.7417V60.2626C50.3889 60.3116 50.0349 60.3541 49.6793 60.3912V71.5059H56.7594V71.2552H50.7417Z" fill="white"/>
<path d="M73.0373 70.8029C72.8279 70.5004 72.6129 70.1159 72.3942 69.6502C72.2391 69.328 71.9684 68.735 71.5838 67.8716C71.2496 67.1341 70.9101 66.5732 70.5652 66.1885C70.2191 65.8026 69.8477 65.5399 69.451 65.402C70.4696 65.2867 71.2601 64.9577 71.8212 64.4139C72.3822 63.8701 72.6622 63.1605 72.6622 62.2852C72.6622 61.3182 72.3147 60.5503 71.6184 59.9813C70.922 59.4109 69.9631 59.1258 68.7429 59.1258H64.9363V71.5057H65.9974V65.4457H67.8277C68.1963 65.4457 68.5319 65.536 68.8343 65.7176C69.1353 65.898 69.4324 66.2123 69.723 66.6581C70.0135 67.105 70.3265 67.7165 70.6594 68.4924C71.1024 69.5867 71.495 70.3626 71.8384 70.8201C72.1807 71.2777 72.6276 71.5057 73.1806 71.5057H73.6211V71.255C73.4419 71.2552 73.2483 71.1039 73.0373 70.8029ZM68.7427 65.2044H65.9972V59.3765H68.7427C69.4113 59.3765 69.9431 59.5145 70.3396 59.7903C70.7375 60.0675 71.0227 60.4269 71.1951 60.87C71.3675 61.313 71.4537 61.7852 71.4537 62.2852C71.4537 62.7918 71.3675 63.2667 71.1951 63.7096C71.0227 64.1539 70.7362 64.5106 70.3357 64.7812C69.9352 65.0519 69.4046 65.1924 68.7427 65.2044Z" fill="white"/>
<path d="M86.6244 59.1258H86.261L81.5471 71.5057H81.8231L83.2316 67.7933L83.2489 67.8106H88.8077L90.2586 71.5057H91.4496L86.6244 59.1258ZM83.3178 67.56L85.9679 60.6021L88.7134 67.56H83.3178Z" fill="white"/>
<path d="M18.6254 77.2437C18.6254 77.471 18.5426 77.6478 18.3769 77.7742C18.2113 77.9005 17.9809 77.9637 17.6858 77.9637H16.6483V75.4081H17.5771C17.877 75.4081 18.1019 75.4597 18.2519 75.5631C18.4017 75.6664 18.4769 75.8216 18.4769 76.0283C18.4769 76.1794 18.4345 76.3065 18.35 76.4092C18.2652 76.512 18.1455 76.5809 17.9909 76.6159C18.194 76.6402 18.3506 76.7082 18.4606 76.8201C18.5703 76.932 18.6254 77.0731 18.6254 77.2437ZM18.1284 76.0701C18.1284 75.9323 18.0812 75.8337 17.987 75.7746C17.8927 75.7153 17.756 75.6856 17.5771 75.6856H16.9949V76.4945H17.5771C17.7622 76.4945 17.9003 76.4598 17.9916 76.3903C18.0828 76.3207 18.1284 76.214 18.1284 76.0701ZM18.2754 77.2166C18.2754 76.9154 18.0638 76.7649 17.6405 76.7649H16.9948V77.6861H17.6676C17.8793 77.6861 18.0334 77.6469 18.1301 77.5682C18.227 77.4896 18.2754 77.3724 18.2754 77.2166Z" fill="white"/>
<path d="M20.9736 76.9044V77.9637H20.6289V76.9044L19.6458 75.4081H20.0267L20.8048 76.625L21.5793 75.4081H21.9602L20.9736 76.9044Z" fill="white"/>
<path d="M25.9439 77.7154C26.3017 77.7154 26.5709 77.5382 26.7511 77.1838L27.034 77.3254C26.9287 77.5454 26.781 77.713 26.5905 77.8279C26.4001 77.9428 26.1792 78.0001 25.9276 78.0001C25.6688 78.0001 25.4464 77.9464 25.2602 77.8388C25.074 77.7311 24.9309 77.578 24.8312 77.379C24.7314 77.1801 24.6815 76.9452 24.6815 76.6743C24.6815 76.4023 24.731 76.1689 24.8302 75.9742C24.9292 75.7796 25.0719 75.6302 25.2582 75.5261C25.4443 75.4222 25.6668 75.3701 25.9256 75.3701C26.1978 75.3701 26.425 75.4233 26.6075 75.5297C26.7902 75.6361 26.9243 75.794 27.0102 76.0032L26.6819 76.1121C26.6227 75.9634 26.5274 75.8498 26.3962 75.7711C26.265 75.6925 26.1093 75.6532 25.929 75.6532C25.6462 75.6532 25.426 75.7443 25.2689 75.9262C25.1116 76.1082 25.033 76.3577 25.033 76.6743C25.033 76.8824 25.0702 77.0648 25.1446 77.2213C25.219 77.3779 25.3241 77.4994 25.4602 77.5858C25.5964 77.672 25.7576 77.7154 25.9439 77.7154Z" fill="white"/>
<path d="M28.5695 76.9027V77.9638H28.223V75.4081H29.4256C29.7133 75.4081 29.9355 75.4725 30.0922 75.6013C30.2486 75.7301 30.3271 75.9094 30.3271 76.139C30.3271 76.3289 30.2717 76.4885 30.1611 76.6178C30.0506 76.7471 29.8979 76.8289 29.7031 76.8628L30.4286 77.9637H30.0295L29.3657 76.9026H28.5695V76.9027ZM29.9788 76.1426C29.9788 75.994 29.9283 75.8807 29.8274 75.8027C29.7263 75.7247 29.581 75.6856 29.3911 75.6856H28.5695V76.6288H29.4055C29.5882 76.6288 29.7293 76.5861 29.8291 76.5009C29.9289 76.4157 29.9788 76.2963 29.9788 76.1426Z" fill="white"/>
<path d="M32.0331 75.4081V77.9637H31.6866V75.4081H32.0331Z" fill="white"/>
<path d="M35.4261 77.2582C35.4261 77.494 35.3338 77.6766 35.1496 77.8059C34.9652 77.9354 34.7054 78 34.3705 78C33.7477 78 33.3868 77.7836 33.2876 77.3507L33.6232 77.2836C33.6619 77.4372 33.744 77.5499 33.8699 77.6218C33.9956 77.6939 34.1668 77.7298 34.3832 77.7298C34.6069 77.7298 34.7795 77.6913 34.901 77.6145C35.0227 77.5378 35.0834 77.425 35.0834 77.2763C35.0834 77.1928 35.0644 77.1252 35.0263 77.073C34.9881 77.0211 34.9346 76.978 34.8657 76.9442C34.7968 76.9105 34.7146 76.8819 34.619 76.859C34.5234 76.8361 34.4176 76.8112 34.3016 76.7846C34.1673 76.7543 34.0552 76.7248 33.9651 76.6957C33.8751 76.6667 33.801 76.6363 33.7429 76.6041C33.6849 76.5721 33.6352 76.5379 33.5942 76.5016C33.5337 76.4461 33.4876 76.3812 33.4554 76.3076C33.4234 76.2337 33.4074 76.1491 33.4074 76.0535C33.4074 75.8348 33.4912 75.666 33.6587 75.5475C33.8262 75.429 34.066 75.3697 34.3778 75.3697C34.668 75.3697 34.8899 75.4141 35.0436 75.5029C35.1972 75.5917 35.3047 75.7433 35.3664 75.9574L35.0255 76.0172C34.9878 75.8818 34.9165 75.7835 34.8114 75.7225C34.7063 75.6614 34.5605 75.6308 34.3742 75.6308C34.1698 75.6308 34.0139 75.6647 33.9062 75.7325C33.7985 75.8001 33.7449 75.9011 33.7449 76.0352C33.7449 76.1138 33.7658 76.1788 33.8075 76.2303C33.8491 76.2816 33.9094 76.3249 33.9878 76.3599C34.0617 76.3949 34.2182 76.439 34.4576 76.4922C34.5556 76.5153 34.6522 76.5391 34.7478 76.5639C34.8432 76.5887 34.9333 76.6198 35.0181 76.6573C35.0676 76.6779 35.1151 76.703 35.1604 76.7327C35.2057 76.7623 35.2453 76.7965 35.2792 76.8352C35.3252 76.886 35.3611 76.9458 35.387 77.0147C35.4131 77.0841 35.4261 77.1651 35.4261 77.2582Z" fill="white"/>
<path d="M37.6454 75.6909V77.9637H37.3007V75.6909H36.4229V75.4081H38.5233V75.6909H37.6454Z" fill="white"/>
<path d="M40.0408 75.4081V77.9637H39.6943V75.4081H40.0408Z" fill="white"/>
<path d="M41.7397 76.266V77.9637H41.4313V75.4081H41.8339L43.2161 77.5991C43.2016 77.3609 43.1944 77.1892 43.1944 77.0839V75.4081H43.5064V77.9637H43.0891L41.7215 75.7871C41.7239 75.8668 41.7276 75.9467 41.7323 76.0264C41.7372 76.1064 41.7397 76.1862 41.7397 76.266Z" fill="white"/>
<path d="M45.2124 77.2166L44.9186 77.9638H44.5594L45.6024 75.4082H45.996L47.0226 77.9638H46.6688L46.3769 77.2166H45.2124ZM45.7946 75.6692C45.7741 75.7369 45.7496 75.8123 45.7212 75.8951C45.6928 75.9778 45.6666 76.0508 45.6423 76.1137L45.3178 76.9462H46.2735L45.9452 76.1028C45.9282 76.0606 45.9059 76.0006 45.8782 75.9233C45.8502 75.8459 45.8224 75.7611 45.7946 75.6692Z" fill="white"/>
<path d="M50.7939 77.7154C51.1517 77.7154 51.4208 77.5382 51.6011 77.1838L51.884 77.3254C51.7787 77.5454 51.631 77.713 51.4405 77.8279C51.2501 77.9428 51.0292 78.0001 50.7776 78.0001C50.5188 78.0001 50.2964 77.9464 50.1102 77.8388C49.924 77.7311 49.7809 77.578 49.6812 77.379C49.5813 77.1801 49.5314 76.9452 49.5314 76.6743C49.5314 76.4023 49.581 76.1689 49.6802 75.9742C49.7792 75.7796 49.9219 75.6302 50.1082 75.5261C50.2943 75.4222 50.5168 75.3701 50.7756 75.3701C51.0476 75.3701 51.2749 75.4233 51.4575 75.5297C51.6402 75.6361 51.7743 75.794 51.8602 76.0032L51.5319 76.1121C51.4727 75.9634 51.3775 75.8498 51.2463 75.7711C51.1151 75.6925 50.9594 75.6532 50.7792 75.6532C50.4962 75.6532 50.2762 75.7443 50.119 75.9262C49.9617 76.1082 49.8832 76.3577 49.8832 76.6743C49.8832 76.8824 49.9203 77.0648 49.9947 77.2213C50.0691 77.3779 50.1744 77.4994 50.3103 77.5858C50.4464 77.672 50.6076 77.7154 50.7939 77.7154Z" fill="white"/>
<path d="M53.4285 77.2166L53.1346 77.9638H52.7755L53.8185 75.4082H54.212L55.2387 77.9638H54.8849L54.593 77.2166H53.4285ZM54.0106 75.6692C53.9902 75.7369 53.9657 75.8123 53.9373 75.8951C53.9089 75.9778 53.8826 76.0508 53.8584 76.1137L53.5339 76.9462H54.4896L54.1613 76.1028C54.1443 76.0606 54.1219 76.0006 54.0943 75.9233C54.0664 75.8459 54.0386 75.7611 54.0106 75.6692Z" fill="white"/>
<path d="M57.9316 77.6808V77.9638H56.2938V75.4081H56.6401V77.6807H57.9316V77.6808Z" fill="white"/>
<path d="M59.4581 77.2166L59.1643 77.9638H58.8052L59.8481 75.4082H60.2417L61.2684 77.9638H60.9146L60.6226 77.2166H59.4581ZM60.0403 75.6692C60.0198 75.7369 59.9953 75.8123 59.9669 75.8951C59.9385 75.9778 59.9123 76.0508 59.8881 76.1137L59.5635 76.9462H60.5192L60.191 76.1028C60.1739 76.0606 60.1516 76.0006 60.1239 75.9233C60.096 75.8459 60.0681 75.7611 60.0403 75.6692Z" fill="white"/>
<path d="M62.6315 76.266V77.9637H62.3232V75.4081H62.7258L64.108 77.5991C64.0934 77.3609 64.0862 77.1892 64.0862 77.0839V75.4081H64.3982V77.9637H63.9809L62.6133 75.7871C62.6158 75.8668 62.6194 75.9467 62.6241 76.0264C62.629 76.1064 62.6315 76.1862 62.6315 76.266Z" fill="white"/>
<path d="M66.8951 77.7154C67.2529 77.7154 67.5219 77.5382 67.7023 77.1838L67.9852 77.3254C67.8801 77.5454 67.7321 77.713 67.5417 77.8279C67.3512 77.9428 67.1304 78.0001 66.8788 78.0001C66.62 78.0001 66.3975 77.9464 66.2114 77.8388C66.0251 77.7311 65.8821 77.578 65.7825 77.379C65.6826 77.1801 65.6327 76.9452 65.6327 76.6743C65.6327 76.4023 65.6823 76.1689 65.7815 75.9742C65.8805 75.7796 66.0233 75.6302 66.2095 75.5261C66.3956 75.4222 66.6181 75.3701 66.8769 75.3701C67.149 75.3701 67.3762 75.4233 67.5588 75.5297C67.7415 75.6361 67.8757 75.794 67.9615 76.0032L67.6332 76.1121C67.574 75.9634 67.4788 75.8498 67.3476 75.7711C67.2164 75.6925 67.0607 75.6532 66.8805 75.6532C66.5975 75.6532 66.3775 75.7443 66.2203 75.9262C66.063 76.1082 65.9845 76.3577 65.9845 76.6743C65.9845 76.8824 66.0217 77.0648 66.0961 77.2213C66.1704 77.3779 66.2757 77.4994 66.4117 77.5858C66.5476 77.672 66.7088 77.7154 66.8951 77.7154Z" fill="white"/>
<path d="M71.1877 77.6808V77.9638H69.1743V75.4081H71.1132V75.6909H69.5206V76.5108H71.0043V76.7903H69.5206V77.6808H71.1877Z" fill="white"/>
<path d="M72.7504 77.2166L72.4565 77.9638H72.0974L73.1404 75.4082H73.534L74.5606 77.9638H74.2068L73.9149 77.2166H72.7504ZM73.3325 75.6692C73.3121 75.7369 73.2876 75.8123 73.2592 75.8951C73.2308 75.9778 73.2045 76.0508 73.1803 76.1137L72.8558 76.9462H73.8115L73.4832 76.1028C73.4662 76.0606 73.4438 76.0006 73.4162 75.9233C73.3883 75.8459 73.3605 75.7611 73.3325 75.6692Z" fill="white"/>
<path d="M72.0666 24.7292C72.3378 28.4425 71.8817 31.8061 70.7436 35.0808C70.3583 36.1909 69.8514 37.1769 69.162 38.0591C69.0885 38.1554 68.3154 39.1338 67.4612 39.7422C64.9359 41.5438 62.0665 39.846 60.3618 40.4831C60.3618 40.483 60.3617 40.483 60.3617 40.4828C58.7158 37.4494 56.4225 34.5634 53.2472 32.1812C49.2934 29.2169 44.7282 27.5961 40.2903 26.8878C45.959 21.276 52.0814 14.6589 57.5048 8.59629C57.6905 8.3881 57.8762 8.17977 58.0606 7.97289C60.4466 5.29906 62.6868 2.74447 64.6804 0.447219C63.918 -0.214101 62.7639 -0.1325 62.1006 0.628155C60.7533 2.17325 59.4293 3.67798 58.1309 5.14249C58.1306 5.14278 58.1303 5.14321 58.13 5.1435C50.5815 0.647907 38.0044 0.606961 28.6704 8.7556C28.1457 9.21191 27.6312 9.69604 27.1267 10.208C27.1116 10.2231 27.0963 10.2384 27.0836 10.2536C21.6559 15.7899 19.152 23.2614 19.693 30.6217C19.6915 30.623 19.6897 30.6241 19.6883 30.6254C18.785 31.3669 18.0979 32.1799 17.6616 33.046C17.5782 33.2105 15.647 37.1033 17.4734 39.2598C18.6789 40.6829 20.8913 40.5808 22.3158 40.3686C22.3161 40.3686 22.3164 40.3685 22.3168 40.3685C22.9943 41.7586 23.7985 43.1062 24.7342 44.3933C32.3205 54.8338 46.4793 58.2834 58.0248 52.4562C59.3956 51.7643 60.6552 50.9833 61.8186 50.1363C61.8188 50.1379 61.8193 50.1396 61.8196 50.1412C61.8806 50.4529 61.9389 50.7672 61.9933 51.0843C62.2453 52.5564 63.9722 53.8715 64.0067 53.7548C63.8648 52.7309 63.6791 49.9541 63.4363 48.8666V48.8653C63.436 48.864 63.4356 48.8626 63.4353 48.8611C71.3292 42.1133 73.7266 31.9537 72.0666 24.7292ZM24.2245 16.7171C24.7137 14.6792 25.8037 13.0114 27.0836 11.63C28.1329 10.4945 29.3091 9.55158 30.3813 8.7556C30.7564 8.47936 31.1163 8.22072 31.4559 7.9775C31.466 7.96986 31.4763 7.96236 31.489 7.95472C32.4876 7.23991 34.8018 5.69626 38.1526 4.54807C39.3338 4.14251 44.1345 2.58616 50.4764 3.32375C52.3405 3.539 55.0019 4.03222 58.0386 5.24802C57.3597 6.01171 56.6902 6.76357 56.0271 7.50476C55.7965 7.7621 55.5669 8.01931 55.3376 8.27406C49.0361 15.2904 43.4018 21.2457 38.6111 25.9661C38.6101 25.9671 38.6091 25.9681 38.6079 25.9691C38.8798 22.0747 38.7721 18.1469 38.276 14.217L37.27 14.344C37.7858 18.431 37.8762 22.5159 37.5474 26.5615C34.5587 26.323 31.7013 26.4728 29.2177 26.872C28.5108 26.9835 27.833 27.1174 27.1923 27.2674C26.5265 27.4239 25.8845 27.599 25.2718 27.7926C24.0916 28.1638 23.0149 28.6014 22.0575 29.0961C22.6396 26.3899 23.5041 25.5037 24.0442 22.8613C24.7518 19.4038 23.5857 19.3733 24.2245 16.7171ZM23.5195 38.2268C23.4841 38.1649 23.4503 38.105 23.4134 38.0414C22.7822 36.954 22.1816 36.0162 21.8445 34.5106C21.6816 33.7795 21.57 32.8543 21.7016 31.4125C22.5913 30.8279 23.6692 30.3002 24.8955 29.8521C25.735 29.5444 26.6436 29.2738 27.6104 29.047C28.0017 28.9555 28.4076 28.8693 28.8267 28.7924C30.5921 28.4634 32.5841 28.2698 34.6956 28.2698C35.1916 28.2698 35.6956 28.2805 36.2037 28.303C32.3586 31.9729 29.1568 34.7158 26.7098 36.4215C26.0585 36.875 25.4617 37.2556 24.9192 37.5609C24.4006 37.8527 23.9337 38.0754 23.52 38.2266C23.5198 38.2266 23.5197 38.2266 23.5195 38.2268ZM21.541 38.6218C20.5623 38.72 19.3897 38.6922 18.8685 38.078C18.0635 37.1283 18.8075 34.8325 19.293 33.8696C19.4601 33.5393 19.6816 33.2143 19.9536 32.8987C19.955 32.8972 19.9567 32.8956 19.958 32.8938C20.2697 34.839 20.7988 36.7601 21.5462 38.6213C21.5445 38.6214 21.5429 38.6217 21.541 38.6218ZM26.7643 44.994C25.4026 43.088 25.7604 42.5726 24.3897 39.8382C24.3899 39.8382 24.3899 39.8382 24.39 39.8381C24.6686 39.724 24.9604 39.5874 25.2655 39.4282C25.719 39.1948 26.2006 38.9149 26.7098 38.5939C29.5422 36.7998 33.1807 33.7011 37.1773 29.9076C36.9145 31.7896 36.5625 33.6611 36.1155 35.5176C34.9761 40.2504 33.2355 44.8328 30.9521 49.1588C28.797 47.8304 27.3831 45.8594 26.7643 44.994ZM59.3679 45.0371C59.335 45.4958 59.264 46.0003 59.1322 46.558C59.0663 46.8342 58.9853 47.1257 58.8838 47.4324C58.5796 48.3575 58.2679 49.3131 57.4821 50.2586C55.9715 52.0708 53.8601 52.4663 50.3547 53.0695C47.2116 53.6094 45.4982 53.906 43.5617 53.0846C41.8635 52.3648 41.9952 51.6349 40.2235 50.8617C37.6787 49.7489 36.457 50.8389 33.8639 50.3294C33.1374 50.1865 32.4627 49.9485 31.8393 49.6494C34.1667 45.2437 35.9404 40.5761 37.1012 35.7551C37.6554 33.4538 38.0678 31.13 38.3438 28.7916C38.3449 28.7904 38.3461 28.7894 38.3472 28.7882C38.4467 28.6915 38.5462 28.5946 38.647 28.4977C43.2308 29.0349 48.048 30.5682 52.1505 33.644C55.1719 35.9094 57.5539 38.8286 59.2782 42.3686C59.2787 42.3695 59.2791 42.3705 59.2795 42.3713C59.3045 43.0553 59.4504 43.9069 59.3679 45.0371Z" fill="white"/>
<path d="M60.9299 7.1945L60.6408 7.58953L60.5011 7.48732L61.2555 6.45648L61.3953 6.5587L61.0172 7.07527L61.8922 6.92245L62.0569 7.04298L61.29 7.16942L61.3608 8.11663L61.1874 7.98976L61.1396 7.19075L60.9299 7.1945Z" fill="white"/>
<path d="M62.2481 8.14662L61.9088 8.55419L61.7756 8.44347L62.5928 7.46151L63.0549 7.84602C63.1655 7.938 63.2302 8.03388 63.2492 8.13335C63.2681 8.23298 63.2409 8.32683 63.1675 8.41521C63.1068 8.48816 63.0344 8.53185 62.9505 8.54598C62.8667 8.56039 62.7818 8.5428 62.6962 8.49364L62.6229 9.14862L62.4695 9.02103L62.5537 8.40108L62.2481 8.14662ZM63.0327 8.30521C63.0803 8.24797 63.097 8.18828 63.0831 8.12615C63.0693 8.06386 63.0259 8.00245 62.953 7.94175L62.6374 7.67907L62.3357 8.04137L62.6571 8.30881C62.7272 8.36706 62.7951 8.39589 62.8607 8.39503C62.9261 8.39416 62.9835 8.36417 63.0327 8.30521Z" fill="white"/>
<path d="M63.8893 10.1283L63.7923 10.2312L63.0601 9.54092L63.9365 8.61129L64.6416 9.27621L64.5446 9.37901L63.9653 8.83288L63.6842 9.13103L64.2238 9.63982L64.1281 9.74146L63.5883 9.23267L63.2829 9.55649L63.8893 10.1283Z" fill="white"/>
<path d="M64.5993 10.5216L64.2266 10.6704L64.1036 10.5396L65.3915 10.0444L65.5262 10.1878L64.947 11.4368L64.8259 11.3079L64.9981 10.9456L64.5993 10.5216ZM65.3621 10.2037C65.3304 10.2194 65.2945 10.2361 65.2547 10.2543C65.2148 10.2723 65.1792 10.2876 65.148 10.3004L64.7337 10.4672L65.0611 10.8153L65.2557 10.4068C65.2652 10.3862 65.2794 10.3577 65.2981 10.3209C65.3169 10.2844 65.3382 10.2453 65.3621 10.2037Z" fill="white"/>
<path d="M66.3808 11.366L65.5131 12.0994L65.402 11.9678L66.2696 11.2344L65.9863 10.8993L66.0943 10.808L66.7719 11.6099L66.6639 11.7012L66.3808 11.366Z" fill="white"/>
<path d="M66.8544 13.5855L66.7412 13.6703L66.1376 12.8652L67.1595 12.0988L67.7411 12.8742L67.6279 12.959L67.1504 12.3221L66.8224 12.5681L67.2675 13.1615L67.1557 13.2451L66.7108 12.6517L66.3546 12.9189L66.8544 13.5855Z" fill="white"/>
<path d="M67.9652 15.3057C68.0584 15.4583 68.204 15.527 68.4021 15.5117L68.4155 15.6691C68.2941 15.6815 68.1841 15.662 68.0856 15.6107C67.987 15.5594 67.905 15.4801 67.8395 15.3727C67.772 15.2624 67.737 15.1534 67.7345 15.0459C67.7319 14.9383 67.7601 14.8374 67.819 14.7431C67.878 14.6487 67.9651 14.5663 68.0808 14.4957C68.1969 14.4249 68.3094 14.3853 68.4182 14.3769C68.5272 14.3685 68.628 14.3904 68.721 14.4428C68.8137 14.4953 68.8938 14.5766 68.9613 14.687C69.0321 14.8031 69.0687 14.9139 69.0707 15.0195C69.0729 15.1251 69.0406 15.2235 68.9736 15.3146L68.8416 15.203C68.8897 15.1388 68.9134 15.0686 68.9127 14.9922C68.912 14.9158 68.8884 14.8391 68.8414 14.7621C68.7678 14.6414 68.6715 14.5712 68.553 14.5515C68.4344 14.5317 68.3076 14.5632 68.1724 14.6456C68.0837 14.6998 68.0155 14.7631 67.9681 14.8356C67.9205 14.9082 67.896 14.9847 67.8947 15.0653C67.8931 15.1462 67.9166 15.2261 67.9652 15.3057Z" fill="white"/>
<path d="M69.5534 17.1035C69.4323 17.1668 69.3158 17.1985 69.2041 17.1985C69.0924 17.1986 68.9907 17.1689 68.8993 17.1097C68.8081 17.0504 68.7322 16.9631 68.672 16.8479C68.6114 16.7322 68.583 16.6201 68.5863 16.5117C68.5895 16.4031 68.6234 16.3033 68.6877 16.2122C68.7518 16.1211 68.8448 16.0435 68.9664 15.9801C69.0873 15.9168 69.2027 15.8851 69.3119 15.8849C69.4212 15.8847 69.5208 15.9145 69.6108 15.9743C69.7006 16.034 69.7765 16.1228 69.8382 16.2408C69.8986 16.3564 69.928 16.4681 69.9263 16.5757C69.9244 16.6834 69.8925 16.7823 69.8301 16.8724C69.7678 16.9628 69.6755 17.0396 69.5534 17.1035ZM69.4715 16.9468C69.6124 16.8732 69.7045 16.7803 69.7481 16.6678C69.7917 16.5552 69.7798 16.4348 69.7127 16.3062C69.645 16.1766 69.5529 16.0972 69.4366 16.0679C69.3204 16.0386 69.1908 16.0613 69.0477 16.1361C68.9534 16.1854 68.8801 16.2442 68.8275 16.3127C68.7749 16.381 68.7455 16.4554 68.7394 16.5357C68.7332 16.6159 68.7523 16.6984 68.7965 16.7831C68.8647 16.9138 68.9576 16.9931 69.0748 17.0209C69.1918 17.0484 69.3242 17.0239 69.4715 16.9468Z" fill="white"/>
<path d="M69.6968 18.6294L69.5676 18.6872L69.2332 17.9398L70.3992 17.4181L70.47 17.5761L69.433 18.0402L69.6968 18.6294Z" fill="white"/>
<path d="M70.8133 20.1067C70.6855 20.1548 70.5661 20.1722 70.4551 20.1586C70.344 20.1452 70.2467 20.1034 70.1634 20.0335C70.0799 19.9636 70.0152 19.8677 69.9695 19.7462C69.9234 19.6239 69.9086 19.5092 69.9251 19.4019C69.9415 19.2946 69.9872 19.1998 70.062 19.117C70.1367 19.0342 70.2385 18.9686 70.3668 18.9204C70.4947 18.8722 70.6129 18.8548 70.7215 18.8677C70.8301 18.8808 70.9254 18.9224 71.0074 18.9926C71.0894 19.0628 71.1537 19.1603 71.2006 19.2847C71.2466 19.4068 71.2621 19.5211 71.2474 19.628C71.2327 19.7345 71.1889 19.8288 71.1161 19.9108C71.043 19.9929 70.9422 20.0582 70.8133 20.1067ZM70.751 19.9411C70.8998 19.8852 71.0026 19.804 71.0594 19.6976C71.1162 19.5912 71.1191 19.4702 71.0681 19.3344C71.0165 19.1975 70.9349 19.1075 70.823 19.0644C70.7111 19.0213 70.5798 19.028 70.4287 19.085C70.3291 19.1225 70.249 19.1719 70.1885 19.2335C70.1279 19.2951 70.0899 19.3654 70.0742 19.4443C70.0583 19.5231 70.0672 19.6073 70.1008 19.6967C70.1527 19.8348 70.2353 19.9247 70.3482 19.9665C70.4611 20.0081 70.5955 19.9996 70.751 19.9411Z" fill="white"/>
<path d="M70.9543 20.9096L70.4464 21.063L70.3964 20.8972L71.6194 20.528L71.7931 21.1036C71.8346 21.2412 71.8359 21.3569 71.797 21.4504C71.7581 21.544 71.6835 21.6074 71.5735 21.6406C71.4827 21.668 71.3982 21.6645 71.3205 21.6304C71.2425 21.5961 71.1815 21.5348 71.1371 21.4465L70.7151 21.9529L70.6575 21.7619L71.0694 21.2908L70.9543 20.9096ZM71.5215 21.4742C71.5927 21.4527 71.6396 21.4122 71.6623 21.3525C71.685 21.293 71.6827 21.2179 71.6554 21.1269L71.5366 20.7338L71.0852 20.87L71.206 21.2701C71.2324 21.3574 71.2732 21.4189 71.3284 21.4543C71.3837 21.4899 71.4481 21.4964 71.5215 21.4742Z" fill="white"/>
<path d="M71.4363 23.4174C71.3215 23.4444 71.2222 23.4203 71.1381 23.3453C71.0542 23.2705 70.9931 23.1514 70.9549 22.9883C70.8838 22.6853 70.948 22.485 71.1472 22.3873L71.2182 22.5428C71.1478 22.5792 71.1024 22.6321 71.0816 22.7016C71.061 22.7711 71.063 22.8584 71.0877 22.9637C71.1132 23.0725 71.1517 23.1521 71.2029 23.2026C71.2542 23.2529 71.3159 23.2696 71.3884 23.2527C71.4291 23.2432 71.4598 23.2262 71.4808 23.2017C71.5019 23.1772 71.5166 23.1462 71.5251 23.109C71.5338 23.0715 71.5382 23.0283 71.5385 22.9792C71.5388 22.9301 71.5388 22.8757 71.5385 22.8162C71.5379 22.7474 71.5395 22.6895 71.5433 22.6423C71.5472 22.5952 71.5535 22.5557 71.5626 22.5237C71.5715 22.4918 71.5825 22.4638 71.5955 22.4396C71.6155 22.4039 71.6419 22.374 71.674 22.3499C71.7062 22.3259 71.7455 22.3086 71.792 22.2975C71.8985 22.2727 71.9902 22.294 72.0669 22.3619C72.1437 22.43 72.2 22.5398 72.2356 22.6916C72.2687 22.8328 72.2724 22.9459 72.2467 23.0307C72.2209 23.1156 72.1595 23.1854 72.0624 23.2398L71.9944 23.0806C72.0559 23.0469 72.0957 23.001 72.1133 22.9429C72.1311 22.8847 72.1292 22.8103 72.108 22.7196C72.0846 22.6203 72.0503 22.5482 72.0052 22.5035C71.9599 22.4588 71.9047 22.4442 71.8394 22.4595C71.8011 22.4684 71.7719 22.486 71.7516 22.5123C71.7314 22.5384 71.7173 22.5727 71.7091 22.6149C71.7004 22.6549 71.697 22.7362 71.6983 22.8587C71.6983 22.909 71.6977 22.9588 71.6964 23.0082C71.6952 23.0574 71.6905 23.1048 71.6817 23.1504C71.6774 23.1769 71.6706 23.2029 71.6613 23.2284C71.6521 23.2538 71.64 23.277 71.625 23.2979C71.6054 23.3261 71.5805 23.3505 71.5499 23.371C71.5196 23.3912 71.4816 23.4067 71.4363 23.4174Z" fill="white"/>
</g>
<defs>
<clipPath id="clip0_119_351">
<rect width="91.4496" height="78" fill="white"/>
</clipPath>
</defs>
</svg>
